#!OML:ASF E:/inclinewalkrobotboard/Project1/Captureday1/Session1/subject1.ASF
:FULLY-SPECIFIED
:DEGREES
163
root 0 0 0 1.0403294833577703 -3.6708819415864373 1.830887782195366
lowerback 11.978623079507662 0.8496960519055462 -0.06357168322824161
upperback -4.231081921011954 1.0789010291502994 -0.5431757246882603
thorax -11.341993886708565 0.4938783122784417 -0.784119973354892
lowerneck -5.784305421653929 1.4867461744781307 4.564078674120243
upperneck 18.036916495049446 2.9417036958600153 -8.341960914915846
head 6.590636188809743 1.0742092546308792 -3.2239912326267137
rclavicle 1.6518785473241165E-16 -2.0295331381300532E-15
rhumerus 19.87936165723726 14.341246288531146 -47.73970627549796
rradius 72.22532048754388
rwrist 27.130453164552332
rhand -34.6331533419971 -57.1072337347635
rfingers 7.125020000000035
rthumb -7.785871891386558 -87.16158053603283
lclavicle -1.538911833049594E-16 -4.3865646187761153E-16
lhumerus 21.0278979720943 -12.452161134740763 45.306400132366726
lradius 70.02608987795543
lwrist -22.26258241968014
lhand -44.78490795810062 -70.25271535783688
lfingers 7.125020000000027
lthumb -17.572793476506686 -40.93161493530259
rfemur -24.69622767468652 -2.313692101201539 17.111223674362282
rtibia 54.50254941631076
rfoot -28.99379217646333 -16.65449773567589
rtoes -18.493227387172826
lfemur -25.90257346248506 2.4372237697968973 -18.064690929134343
ltibia 53.193116628772714
lfoot -30.795939172782408 -3.4561442028992286
ltoes -20.870175915658358
164
root 0 0 0 1.0399449565814978 -3.671489990736295 1.830722039811489
lowerback 11.978615112572307 0.8496270436478759 -0.06329415868167229
upperback -4.230869353956916 1.0788517066997316 -0.5430389073790629
thorax -11.341732592122241 0.49385016444072316 -0.7841112041918257
lowerneck -5.782740286881056 1.4866295431742937 4.5644521720216815
upperneck 18.036004224396905 2.9416149535365452 -8.342828452331123
head 6.5900685114174085 1.074173032217682 -3.2243360090178714
rclavicle 1.9486479569422535E-16 -2.036598711103684E-15
rhumerus 19.882848443753076 14.344251021085014 -47.73935625018854
rradius 72.22823016053214
rwrist 27.130667721694987
rhand -34.633136418269665 -57.108954902150046
rfingers 7.125020000000035
rthumb -7.785994187990263 -87.16352524446745
lclavicle -1.2385959292764128E-16 -4.502537269659627E-16
lhumerus 21.027957123740848 -12.452573104590497 45.304746355274666
lradius 70.02735654300166
lwrist -22.263943401925253
lhand -44.78443827484226 -70.25370293783311
lfingers 7.125020000000026
lthumb -17.57247011616044 -40.932176338105194
rfemur -24.69698064171204 -2.3147191212298797 17.11110754992132
rtibia 54.508160793391355
rfoot -28.99410458039163 -16.654671543037914
rtoes -18.495890798354072
lfemur -25.9026243917837 2.4382659634924364 -18.064482410667626
ltibia 53.19599567243837
lfoot -30.79229153859323 -3.4575670399112592
ltoes -20.871368637833424
165
root 0 0 0 1.039745175704296 -3.671821433581439 1.8306084204945066
lowerback 11.978622535335177 0.8495827170484467 -0.0631479019862865
upperback -4.230748412606839 1.078818148388371 -0.5429591142498863
thorax -11.341602461166023 0.4938308441652155 -0.7840987035851369
lowerneck -5.781843952522633 1.4865628831989117 4.56463756864437
upperneck 18.035469505497556 2.9415708997706362 -8.34328806444257
head 6.589741763717364 1.0741481342560721 -3.224512393199215
rclavicle 1.913516588954266E-16 -2.0358522365240995E-15
rhumerus 19.883704774446464 14.344997406504621 -47.73871565833928
rradius 72.22872888963742
rwrist 27.130688611025924
rhand -34.631853285048415 -57.107625483789555
rfingers 7.125020000000035
rthumb -7.784758488780605 -87.16221547493961
lclavicle -1.2660094191023566E-16 -4.493040753053494E-16
lhumerus 21.02849648332708 -12.453357585854722 45.30393973216793
lradius 70.02786743060747
lwrist -22.264080072633163
lhand -44.78408126678662 -70.25135482604323
lfingers 7.125020000000026
lthumb -17.57213997885069 -40.92974864838263
rfemur -24.69723795122176 -2.314886899436789 17.11117857238012
rtibia 54.50912690903893
rfoot -28.994081456206924 -16.654600069143676
rtoes -18.495570456467423
lfemur -25.902174406533817 2.438790543713051 -18.064278683704977
ltibia 53.19736154225988
lfoot -30.79139648147096 -3.457753203716868
ltoes -20.87254545459039
166
root 0 0 0 1.0396706407927796 -3.6719495730427862 1.8305547560143236
lowerback 11.978640157392944 0.8495600423999317 -0.06308454583514977
upperback -4.230692197940914 1.078799871485568 -0.5429229260215434
thorax -11.34155124039925 0.49382036530033646 -0.7840910057372716
lowerneck -5.781472113609405 1.4865249408287387 4.564699210488847
upperneck 18.03522193335953 2.94153899341167 -8.343466111649716
head 6.589598331210196 1.0741308791521433 -3.2245796464346643
rclavicle 1.9047255965840942E-16 -2.035342492315359E-15
rhumerus 19.8839355871932 14.34521040833334 -47.738553991949686
rradius 72.22884206116846
rwrist 27.13065214557786
rhand -34.63142518379552 -57.107076214693265
rfingers 7.125020000000035
rthumb -7.784353061582653 -87.16165543968381
lclavicle -1.2730119038620323E-16 -4.486321538712999E-16
lhumerus 21.028644551653393 -12.453623136713592 45.30367817004438
lradius 70.02800458620789
lwrist -22.264096020121258
lhand -44.78393282209701 -70.25035842771352
lfingers 7.125020000000026
lthumb -17.571994792928997 -40.92875804474463
rfemur -24.697335230797133 -2.3149282888727885 17.111173009204705
rtibia 54.50938888223751
rfoot -28.994021317415957 -16.654627674031516
rtoes -18.49537061363119
lfemur -25.902326142026727 2.4390248805104933 -18.064202853816717
ltibia 53.19804200899278
lfoot -30.79111063799427 -3.4576853667424117
ltoes -20.872478456190443
167
root 0 0 0 1.0393979880212283 -3.6725864165859954 1.8303099136851295
lowerback 11.978661236435128 0.8494777732557665 -0.0628600679197312
upperback -4.230507659198933 1.0787369140483871 -0.5427738411324444
thorax -11.34138184520058 0.4937834792678315 -0.7840444850767608
lowerneck -5.7799009831195765 1.486416825767841 4.564959510167839
upperneck 18.03432585131304 2.94149221107664 -8.344193899341729
head 6.5890440118321125 1.0740869609429895 -3.2248431559845465
rclavicle 1.8212059917706428E-16 -2.026746840803947E-15
rhumerus 19.886240180337907 14.347885035747137 -47.737329001594205
rradius 72.23000589910643
rwrist 27.129201119155844
rhand -34.626181214876034 -57.10000360355171
rfingers 7.125020000000035
rthumb -7.779214826085427 -87.15428585536347
lclavicle -1.3596590582307702E-16 -4.3864234631982823E-16
lhumerus 21.030314280970416 -12.456339025327086 45.30166440190454
lradius 70.02890098283275
lwrist -22.263745787966883
lhand -44.78237844392137 -70.23801856818865
lfingers 7.125020000000026
lthumb -17.57037131325761 -40.91667755685768
rfemur -24.695934518530674 -2.313690898073763 17.111388340325696
rtibia 54.502602412383894
rfoot -28.99500076151777 -16.654426569178963
rtoes -18.49426911733237
lfemur -25.898037838774805 2.438948021836008 -18.063419211122074
ltibia 53.19354911925825
lfoot -30.79496240105339 -3.4555320249725523
ltoes -20.88143599694841
168
root 0 0 0 1.039383634123502 -3.67252749462918 1.8303694379537645
lowerback 11.978640051454565 0.8494946027956907 -0.06286165197686217
upperback -4.230520478201435 1.078752325100496 -0.542794409856442
thorax -11.341361839934805 0.4937927113242198 -0.7840650831744618
lowerneck -5.780070462036658 1.4864291526801967 4.56498459815519
upperneck 18.03443189838838 2.9414860207883957 -8.344181261384437
head 6.589102768669464 1.074098469487541 -3.224851910259086
rclavicle 2.0596439217808326E-16 -2.034922787317149E-15
rhumerus 19.887117331935915 14.34839380520117 -47.73794926820002
rradius 72.23114206498924
rwrist 27.12984040053859
rhand -34.62882454885362 -57.104443871330844
rfingers 7.125020000000035
rthumb -7.781878287681811 -87.15896852484121
lclavicle -1.1210768416999648E-16 -4.50430032984342E-16
lhumerus 21.029394110359473 -12.45513355035067 45.30185196005396
lradius 70.02905306068013
lwrist -22.264652090308594
lhand -44.78285663779273 -70.24455577819653
lfingers 7.125020000000026
lthumb -17.570954384755034 -40.922887081423106
rfemur -24.696807738970513 -2.3147211484523718 17.11121421732498
rtibia 54.5082037988024
rfoot -28.994889577704065 -16.65465451986576
rtoes -18.496514427588856
lfemur -25.90001243224424 2.4393565078723816 -18.063702473054462
ltibia 53.19639401196032
lfoot -30.791751082624412 -3.4570932493799673
ltoes -20.878050202197876
169
root 0 0 0 1.0394051247335803 -3.672454719774205 1.8303933964127106
lowerback 11.978637869788185 0.8495022405555517 -0.06288465635158894
upperback -4.230536127741103 1.0787578428637064 -0.5428101520703571
thorax -11.341376908388586 0.49379597733538894 -0.7840704877145404
lowerneck -5.78022026575146 1.4864410991757644 4.564961247739002
upperneck 18.0345134384168 2.941492708818136 -8.344110921948886
head 6.589154481523134 1.074102882472452 -3.2248261407090086
rclavicle 1.9816968753049335E-16 -2.034744312799227E-15
rhumerus 19.886325254800965 14.347549843193313 -47.73787338883911
rradius 72.23051605675731
rwrist 27.130161964343504
rhand -34.62920393629857 -57.1048337315044
rfingers 7.125020000000035
rthumb -7.782229478172527 -87.15939426731018
lclavicle -1.1938960388672638E-16 -4.493423065018581E-16
lhumerus 21.029371836240642 -12.454931539351835 45.302169840862746
lradius 70.02890180328495
lwrist -22.264507995694373
lhand -44.78310649174813 -70.24571490115164
lfingers 7.125020000000026
lthumb -17.571205980437824 -40.92402086263253
rfemur -24.697123891117194 -2.3148851580413456 17.11124514030217
rtibia 54.509129408102424
rfoot -28.99459170080388 -16.654600290285455
rtoes -18.495978386066533
lfemur -25.900608443666307 2.4394597165419967 -18.063800462569954
ltibia 53.19759998010925
lfoot -30.791104454395942 -3.457427034190686
ltoes -20.8766101793628
170
root 0 0 0 1.0394630266913558 -3.6723375911867193 1.8304231441898495
lowerback 11.978649485521391 0.8495108596579157 -0.06292352720056038
upperback -4.2305623625589 1.07876303882124 -0.542831763297945
thorax -11.341413236905241 0.4937990697956619 -0.7840737012905312
lowerneck -5.780479045277298 1.4864505338913658 4.564897216542317
upperneck 18.034637375421205 2.9414913015893993 -8.343969477504634
head 6.589239198484062 1.0741032655340716 -3.2247715664311833
rclavicle 1.9468623788462368E-16 -2.034652832501608E-15
rhumerus 19.88554613153429 14.346780929540408 -47.73804179653589
rradius 72.22994086006551
rwrist 27.130324760175856
rhand -34.62979990471338 -57.105361017777845
rfingers 7.125020000000035
rthumb -7.782801565331635 -87.15992190473659
lclavicle -1.228497162739382E-16 -4.486524390990193E-16
lhumerus 21.029180867407483 -12.45458977204699 45.302592928040234
lradius 70.02863913370211
lwrist -22.264357983158952
lhand -44.78333410462342 -70.24689531335208
lfingers 7.125020000000026
lthumb -17.571421181614824 -40.925240819374935
rfemur -24.697259970150974 -2.314925104116191 17.111213941951952
rtibia 54.509375920309445
rfoot -28.994344920429587 -16.654631205478683
rtoes -18.495634893026796
lfemur -25.90136669990991 2.439433024960788 -18.06390913526605
ltibia 53.19817366174966
lfoot -30.79094602063583 -3.45747590317642
ltoes -20.874978296265922
